G75*
%MOIN*%
%OFA0B0*%
%FSLAX25Y25*%
%IPPOS*%
%LPD*%
%AMOC8*
5,1,8,0,0,1.08239X$1,22.5*
%
%ADD10C,0.00500*%
D10*
X0035646Y0079543D02*
X0076984Y0079543D01*
X0076984Y0099228D01*
X0035646Y0099228D01*
X0035646Y0079543D01*
X0036315Y0086886D02*
X0036413Y0086888D01*
X0036511Y0086894D01*
X0036609Y0086903D01*
X0036706Y0086917D01*
X0036803Y0086934D01*
X0036899Y0086955D01*
X0036994Y0086980D01*
X0037088Y0087008D01*
X0037180Y0087041D01*
X0037272Y0087076D01*
X0037362Y0087116D01*
X0037450Y0087158D01*
X0037537Y0087205D01*
X0037621Y0087254D01*
X0037704Y0087307D01*
X0037784Y0087363D01*
X0037863Y0087423D01*
X0037939Y0087485D01*
X0038012Y0087550D01*
X0038083Y0087618D01*
X0038151Y0087689D01*
X0038216Y0087762D01*
X0038278Y0087838D01*
X0038338Y0087917D01*
X0038394Y0087997D01*
X0038447Y0088080D01*
X0038496Y0088164D01*
X0038543Y0088251D01*
X0038585Y0088339D01*
X0038625Y0088429D01*
X0038660Y0088521D01*
X0038693Y0088613D01*
X0038721Y0088707D01*
X0038746Y0088802D01*
X0038767Y0088898D01*
X0038784Y0088995D01*
X0038798Y0089092D01*
X0038807Y0089190D01*
X0038813Y0089288D01*
X0038815Y0089386D01*
X0038813Y0089484D01*
X0038807Y0089582D01*
X0038798Y0089680D01*
X0038784Y0089777D01*
X0038767Y0089874D01*
X0038746Y0089970D01*
X0038721Y0090065D01*
X0038693Y0090159D01*
X0038660Y0090251D01*
X0038625Y0090343D01*
X0038585Y0090433D01*
X0038543Y0090521D01*
X0038496Y0090608D01*
X0038447Y0090692D01*
X0038394Y0090775D01*
X0038338Y0090855D01*
X0038278Y0090934D01*
X0038216Y0091010D01*
X0038151Y0091083D01*
X0038083Y0091154D01*
X0038012Y0091222D01*
X0037939Y0091287D01*
X0037863Y0091349D01*
X0037784Y0091409D01*
X0037704Y0091465D01*
X0037621Y0091518D01*
X0037537Y0091567D01*
X0037450Y0091614D01*
X0037362Y0091656D01*
X0037272Y0091696D01*
X0037180Y0091731D01*
X0037088Y0091764D01*
X0036994Y0091792D01*
X0036899Y0091817D01*
X0036803Y0091838D01*
X0036706Y0091855D01*
X0036609Y0091869D01*
X0036511Y0091878D01*
X0036413Y0091884D01*
X0036315Y0091886D01*
X0053815Y0089386D02*
X0054815Y0089386D01*
X0054815Y0091886D01*
X0055815Y0090386D02*
X0056815Y0090386D01*
X0056815Y0088386D01*
X0055815Y0088386D01*
X0055815Y0090386D01*
X0054815Y0089386D02*
X0054815Y0086886D01*
X0057815Y0086886D02*
X0057815Y0089386D01*
X0058815Y0089386D01*
X0057815Y0089386D02*
X0057815Y0091886D01*
M02*
