G75*
%MOIN*%
%OFA0B0*%
%FSLAX25Y25*%
%IPPOS*%
%LPD*%
%AMOC8*
5,1,8,0,0,1.08239X$1,22.5*
%
%ADD10C,0.00394*%
%ADD11OC8,0.06300*%
%ADD12R,0.06299X0.05512*%
%ADD13R,0.03000X0.04500*%
%ADD14C,0.07400*%
%ADD15OC8,0.08500*%
%ADD16OC8,0.05200*%
%ADD17C,0.05600*%
%ADD18C,0.09449*%
%ADD19C,0.09449*%
%ADD20C,0.07677*%
%ADD21R,0.03150X0.01063*%
%ADD22R,0.02165X0.04724*%
%ADD23C,0.06000*%
%ADD24C,0.04756*%
%ADD25C,0.01000*%
%ADD26C,0.01600*%
%ADD27R,0.03962X0.03962*%
D10*
X0001197Y0079937D02*
X0001221Y0081869D01*
X0001292Y0083801D01*
X0001410Y0085729D01*
X0001576Y0087655D01*
X0001789Y0089576D01*
X0002049Y0091491D01*
X0002356Y0093399D01*
X0002710Y0095298D01*
X0003110Y0097189D01*
X0003557Y0099069D01*
X0004049Y0100938D01*
X0004588Y0102794D01*
X0005171Y0104636D01*
X0005800Y0106464D01*
X0006473Y0108275D01*
X0007191Y0110069D01*
X0007952Y0111846D01*
X0008757Y0113603D01*
X0009605Y0115339D01*
X0010495Y0117055D01*
X0011426Y0118748D01*
X0012399Y0120417D01*
X0013413Y0122063D01*
X0014467Y0123683D01*
X0015560Y0125276D01*
X0016692Y0126842D01*
X0017863Y0128380D01*
X0019070Y0129889D01*
X0020314Y0131368D01*
X0021595Y0132816D01*
X0022910Y0134231D01*
X0024259Y0135615D01*
X0025643Y0136964D01*
X0027058Y0138279D01*
X0028506Y0139560D01*
X0029985Y0140804D01*
X0031494Y0142011D01*
X0033032Y0143182D01*
X0034598Y0144314D01*
X0036191Y0145407D01*
X0037811Y0146461D01*
X0039457Y0147475D01*
X0041126Y0148448D01*
X0042819Y0149379D01*
X0044535Y0150269D01*
X0046271Y0151117D01*
X0048028Y0151922D01*
X0049805Y0152683D01*
X0051599Y0153401D01*
X0053410Y0154074D01*
X0055238Y0154703D01*
X0057080Y0155286D01*
X0058936Y0155825D01*
X0060805Y0156317D01*
X0062685Y0156764D01*
X0064576Y0157164D01*
X0066475Y0157518D01*
X0068383Y0157825D01*
X0070298Y0158085D01*
X0072219Y0158298D01*
X0074145Y0158464D01*
X0076073Y0158582D01*
X0078005Y0158653D01*
X0079937Y0158677D01*
X0081869Y0158653D01*
X0083801Y0158582D01*
X0085729Y0158464D01*
X0087655Y0158298D01*
X0089576Y0158085D01*
X0091491Y0157825D01*
X0093399Y0157518D01*
X0095298Y0157164D01*
X0097189Y0156764D01*
X0099069Y0156317D01*
X0100938Y0155825D01*
X0102794Y0155286D01*
X0104636Y0154703D01*
X0106464Y0154074D01*
X0108275Y0153401D01*
X0110069Y0152683D01*
X0111846Y0151922D01*
X0113603Y0151117D01*
X0115339Y0150269D01*
X0117055Y0149379D01*
X0118748Y0148448D01*
X0120417Y0147475D01*
X0122063Y0146461D01*
X0123683Y0145407D01*
X0125276Y0144314D01*
X0126842Y0143182D01*
X0128380Y0142011D01*
X0129889Y0140804D01*
X0131368Y0139560D01*
X0132816Y0138279D01*
X0134231Y0136964D01*
X0135615Y0135615D01*
X0136964Y0134231D01*
X0138279Y0132816D01*
X0139560Y0131368D01*
X0140804Y0129889D01*
X0142011Y0128380D01*
X0143182Y0126842D01*
X0144314Y0125276D01*
X0145407Y0123683D01*
X0146461Y0122063D01*
X0147475Y0120417D01*
X0148448Y0118748D01*
X0149379Y0117055D01*
X0150269Y0115339D01*
X0151117Y0113603D01*
X0151922Y0111846D01*
X0152683Y0110069D01*
X0153401Y0108275D01*
X0154074Y0106464D01*
X0154703Y0104636D01*
X0155286Y0102794D01*
X0155825Y0100938D01*
X0156317Y0099069D01*
X0156764Y0097189D01*
X0157164Y0095298D01*
X0157518Y0093399D01*
X0157825Y0091491D01*
X0158085Y0089576D01*
X0158298Y0087655D01*
X0158464Y0085729D01*
X0158582Y0083801D01*
X0158653Y0081869D01*
X0158677Y0079937D01*
X0158653Y0078005D01*
X0158582Y0076073D01*
X0158464Y0074145D01*
X0158298Y0072219D01*
X0158085Y0070298D01*
X0157825Y0068383D01*
X0157518Y0066475D01*
X0157164Y0064576D01*
X0156764Y0062685D01*
X0156317Y0060805D01*
X0155825Y0058936D01*
X0155286Y0057080D01*
X0154703Y0055238D01*
X0154074Y0053410D01*
X0153401Y0051599D01*
X0152683Y0049805D01*
X0151922Y0048028D01*
X0151117Y0046271D01*
X0150269Y0044535D01*
X0149379Y0042819D01*
X0148448Y0041126D01*
X0147475Y0039457D01*
X0146461Y0037811D01*
X0145407Y0036191D01*
X0144314Y0034598D01*
X0143182Y0033032D01*
X0142011Y0031494D01*
X0140804Y0029985D01*
X0139560Y0028506D01*
X0138279Y0027058D01*
X0136964Y0025643D01*
X0135615Y0024259D01*
X0134231Y0022910D01*
X0132816Y0021595D01*
X0131368Y0020314D01*
X0129889Y0019070D01*
X0128380Y0017863D01*
X0126842Y0016692D01*
X0125276Y0015560D01*
X0123683Y0014467D01*
X0122063Y0013413D01*
X0120417Y0012399D01*
X0118748Y0011426D01*
X0117055Y0010495D01*
X0115339Y0009605D01*
X0113603Y0008757D01*
X0111846Y0007952D01*
X0110069Y0007191D01*
X0108275Y0006473D01*
X0106464Y0005800D01*
X0104636Y0005171D01*
X0102794Y0004588D01*
X0100938Y0004049D01*
X0099069Y0003557D01*
X0097189Y0003110D01*
X0095298Y0002710D01*
X0093399Y0002356D01*
X0091491Y0002049D01*
X0089576Y0001789D01*
X0087655Y0001576D01*
X0085729Y0001410D01*
X0083801Y0001292D01*
X0081869Y0001221D01*
X0079937Y0001197D01*
X0078005Y0001221D01*
X0076073Y0001292D01*
X0074145Y0001410D01*
X0072219Y0001576D01*
X0070298Y0001789D01*
X0068383Y0002049D01*
X0066475Y0002356D01*
X0064576Y0002710D01*
X0062685Y0003110D01*
X0060805Y0003557D01*
X0058936Y0004049D01*
X0057080Y0004588D01*
X0055238Y0005171D01*
X0053410Y0005800D01*
X0051599Y0006473D01*
X0049805Y0007191D01*
X0048028Y0007952D01*
X0046271Y0008757D01*
X0044535Y0009605D01*
X0042819Y0010495D01*
X0041126Y0011426D01*
X0039457Y0012399D01*
X0037811Y0013413D01*
X0036191Y0014467D01*
X0034598Y0015560D01*
X0033032Y0016692D01*
X0031494Y0017863D01*
X0029985Y0019070D01*
X0028506Y0020314D01*
X0027058Y0021595D01*
X0025643Y0022910D01*
X0024259Y0024259D01*
X0022910Y0025643D01*
X0021595Y0027058D01*
X0020314Y0028506D01*
X0019070Y0029985D01*
X0017863Y0031494D01*
X0016692Y0033032D01*
X0015560Y0034598D01*
X0014467Y0036191D01*
X0013413Y0037811D01*
X0012399Y0039457D01*
X0011426Y0041126D01*
X0010495Y0042819D01*
X0009605Y0044535D01*
X0008757Y0046271D01*
X0007952Y0048028D01*
X0007191Y0049805D01*
X0006473Y0051599D01*
X0005800Y0053410D01*
X0005171Y0055238D01*
X0004588Y0057080D01*
X0004049Y0058936D01*
X0003557Y0060805D01*
X0003110Y0062685D01*
X0002710Y0064576D01*
X0002356Y0066475D01*
X0002049Y0068383D01*
X0001789Y0070298D01*
X0001576Y0072219D01*
X0001410Y0074145D01*
X0001292Y0076073D01*
X0001221Y0078005D01*
X0001197Y0079937D01*
D11*
X0069701Y0116669D03*
X0069701Y0126669D03*
X0086630Y0100213D03*
X0096630Y0100213D03*
X0091433Y0031118D03*
X0081433Y0031118D03*
D12*
G36*
X0042296Y0020838D02*
X0046173Y0025800D01*
X0050516Y0022406D01*
X0046639Y0017444D01*
X0042296Y0020838D01*
G37*
G36*
X0033610Y0027625D02*
X0037487Y0032587D01*
X0041830Y0029193D01*
X0037953Y0024231D01*
X0033610Y0027625D01*
G37*
X0069386Y0137181D03*
X0069386Y0148205D03*
D13*
X0071315Y0082212D03*
X0076315Y0082212D03*
X0081315Y0082212D03*
X0086315Y0082212D03*
X0091315Y0082212D03*
X0096315Y0082212D03*
X0101315Y0082212D03*
X0066315Y0082212D03*
X0061315Y0082212D03*
X0061315Y0044512D03*
X0066315Y0044512D03*
X0071315Y0044512D03*
X0076315Y0044512D03*
X0081315Y0044512D03*
X0086315Y0044512D03*
X0091315Y0044512D03*
X0096315Y0044512D03*
X0101315Y0044512D03*
D14*
X0058638Y0120646D03*
X0048638Y0120646D03*
D15*
X0026276Y0036630D03*
X0019858Y0047535D03*
X0121748Y0129780D03*
D16*
X0093992Y0115764D03*
X0083992Y0115764D03*
X0079110Y0151827D03*
X0089110Y0151827D03*
X0048323Y0042142D03*
X0038323Y0042142D03*
X0061591Y0031118D03*
X0071591Y0031118D03*
X0101709Y0031118D03*
X0111709Y0031118D03*
X0121394Y0032693D03*
X0131394Y0032693D03*
D17*
X0138200Y0049071D02*
X0143800Y0049071D01*
X0143800Y0059071D02*
X0138200Y0059071D01*
X0138200Y0069071D02*
X0143800Y0069071D01*
X0143800Y0090409D02*
X0138200Y0090409D01*
X0138200Y0100409D02*
X0143800Y0100409D01*
X0143800Y0110409D02*
X0138200Y0110409D01*
X0113800Y0110409D02*
X0108200Y0110409D01*
X0108200Y0100409D02*
X0113800Y0100409D01*
X0113800Y0090409D02*
X0108200Y0090409D01*
X0108200Y0069071D02*
X0113800Y0069071D01*
X0113800Y0059071D02*
X0108200Y0059071D01*
X0108200Y0049071D02*
X0113800Y0049071D01*
D18*
X0014110Y0058677D03*
D19*
X0032614Y0063402D02*
X0032614Y0053953D01*
X0051118Y0053953D02*
X0051118Y0063402D01*
D20*
X0042614Y0108677D03*
X0022614Y0108677D03*
D21*
X0069150Y0101118D03*
X0069150Y0099150D03*
X0069150Y0097181D03*
X0069150Y0095213D03*
X0069150Y0093244D03*
X0069150Y0091276D03*
X0078598Y0091276D03*
X0078598Y0093244D03*
X0078598Y0095213D03*
X0078598Y0097181D03*
X0078598Y0099150D03*
X0078598Y0101118D03*
D22*
X0057969Y0132535D03*
X0050488Y0132535D03*
X0050488Y0142772D03*
X0054228Y0142772D03*
X0057969Y0142772D03*
D23*
X0079885Y0144743D02*
X0085885Y0144743D01*
X0085885Y0126943D02*
X0079885Y0126943D01*
X0105485Y0126943D02*
X0111485Y0126943D01*
X0111485Y0144743D02*
X0105485Y0144743D01*
D24*
X0104346Y0018520D03*
X0094504Y0018520D03*
X0084661Y0018520D03*
X0074819Y0018520D03*
X0064976Y0018520D03*
D25*
X0064976Y0031118D02*
X0061591Y0031118D01*
X0064976Y0031118D02*
X0076315Y0042457D01*
X0076315Y0044512D01*
X0075901Y0043057D01*
X0071315Y0041899D02*
X0071315Y0044512D01*
X0070501Y0043057D01*
X0071315Y0041899D02*
X0066833Y0037417D01*
X0057102Y0037417D01*
X0055528Y0037445D01*
X0048323Y0042142D02*
X0048323Y0046079D01*
X0043717Y0050685D01*
X0043717Y0070488D01*
X0052378Y0079937D01*
X0052378Y0114543D01*
X0048638Y0120646D01*
X0058638Y0120843D02*
X0056315Y0113795D01*
X0056315Y0072753D01*
X0057793Y0071276D01*
X0061039Y0068029D01*
X0061039Y0044512D01*
X0061315Y0044512D01*
X0081315Y0044512D02*
X0081315Y0038520D01*
X0083992Y0035843D01*
X0087726Y0035843D01*
X0091433Y0032136D01*
X0091433Y0031118D01*
X0092535Y0037417D02*
X0091315Y0038638D01*
X0091315Y0044512D01*
X0090961Y0044512D01*
X0087024Y0044512D02*
X0086315Y0044512D01*
X0086236Y0044512D01*
X0086236Y0049101D01*
X0088726Y0051591D01*
X0111000Y0051591D01*
X0111000Y0049071D01*
X0119307Y0054740D02*
X0091748Y0054740D01*
X0091748Y0082212D01*
X0091315Y0082212D01*
X0096315Y0082212D02*
X0096472Y0082212D01*
X0096472Y0086236D01*
X0118653Y0086236D01*
X0123244Y0081645D01*
X0123244Y0078362D01*
X0128756Y0073638D02*
X0127181Y0072063D01*
X0127181Y0050189D01*
X0126394Y0050189D01*
X0119134Y0042929D01*
X0101315Y0042929D01*
X0101315Y0044512D01*
X0096472Y0044512D02*
X0096472Y0039780D01*
X0120361Y0039780D01*
X0129543Y0048962D01*
X0129543Y0067339D01*
X0132693Y0070488D01*
X0132693Y0099589D01*
X0120062Y0110646D01*
X0111000Y0110646D01*
X0111000Y0110409D01*
X0105320Y0115370D02*
X0136039Y0115370D01*
X0141000Y0110409D01*
X0128756Y0090173D02*
X0128756Y0073638D01*
X0136708Y0068913D02*
X0132693Y0064898D01*
X0132693Y0047029D01*
X0123081Y0037417D01*
X0121394Y0037417D01*
X0092535Y0037417D01*
X0096315Y0044512D02*
X0096472Y0044512D01*
X0111000Y0068913D02*
X0111000Y0069071D01*
X0111000Y0068913D02*
X0112220Y0068913D01*
X0112220Y0079805D01*
X0109813Y0082212D01*
X0101315Y0082212D01*
X0097260Y0090173D02*
X0091518Y0090173D01*
X0086236Y0084891D01*
X0086236Y0082212D01*
X0086315Y0082212D01*
X0081315Y0082212D02*
X0081315Y0086516D01*
X0085449Y0090650D01*
X0086630Y0090650D01*
X0086630Y0100213D01*
X0086630Y0101118D01*
X0078598Y0101118D01*
X0069150Y0101118D01*
X0066737Y0105134D02*
X0064976Y0103373D01*
X0064976Y0092074D01*
X0066090Y0090961D01*
X0067575Y0090961D01*
X0069150Y0091276D01*
X0065764Y0087024D02*
X0062614Y0090173D01*
X0062614Y0104762D01*
X0066136Y0108283D01*
X0099525Y0108283D01*
X0102772Y0105037D01*
X0102772Y0093012D01*
X0105611Y0090173D01*
X0111000Y0090173D01*
X0111000Y0090409D01*
X0096472Y0097850D02*
X0096472Y0102295D01*
X0093633Y0105134D01*
X0066737Y0105134D01*
X0065143Y0111433D02*
X0101383Y0111433D01*
X0103559Y0113609D01*
X0105320Y0115370D01*
X0096630Y0100213D02*
X0096472Y0097850D01*
X0078598Y0091276D02*
X0077831Y0091276D01*
X0073638Y0087082D01*
X0073638Y0085449D01*
X0071315Y0082212D01*
X0070501Y0081757D01*
X0072063Y0081757D01*
X0072063Y0064189D01*
X0066315Y0082212D02*
X0065764Y0082212D01*
X0065764Y0087024D01*
X0061315Y0082212D02*
X0059465Y0082212D01*
X0059465Y0105755D01*
X0065143Y0111433D01*
X0058638Y0120646D02*
X0058638Y0120843D01*
X0082885Y0126943D02*
X0089147Y0126943D01*
X0094110Y0131906D01*
X0094110Y0146827D01*
X0089110Y0151827D01*
X0141000Y0069071D02*
X0141000Y0068913D01*
X0136708Y0068913D01*
X0121394Y0037417D02*
X0121394Y0032693D01*
D26*
X0125484Y0024819D02*
X0131394Y0030728D01*
X0131394Y0032693D01*
X0125484Y0024819D02*
X0101984Y0024819D01*
X0101984Y0031118D01*
X0101709Y0031118D01*
X0101984Y0024819D02*
X0083874Y0024819D01*
X0081433Y0027260D01*
X0081433Y0031118D01*
X0078362Y0024819D02*
X0084661Y0018520D01*
X0078362Y0024819D02*
X0052378Y0024819D01*
X0046406Y0024819D01*
X0046406Y0021622D01*
X0052378Y0024819D02*
X0052378Y0028087D01*
X0038323Y0042142D01*
X0029499Y0036630D02*
X0037720Y0028409D01*
X0039221Y0026834D01*
X0029499Y0036630D02*
X0026276Y0036630D01*
X0026276Y0051965D01*
X0023500Y0054740D01*
X0022457Y0055784D01*
X0022457Y0078504D01*
X0032693Y0088740D01*
X0032693Y0134255D01*
X0042784Y0142772D01*
X0050488Y0142772D01*
X0050488Y0145981D01*
X0052948Y0148441D01*
X0057890Y0148441D01*
X0059465Y0150016D01*
X0060252Y0150016D01*
X0060252Y0150252D01*
X0057890Y0148441D02*
X0057890Y0142772D01*
X0057969Y0142772D01*
X0053953Y0139965D02*
X0055713Y0138205D01*
X0060853Y0138205D01*
X0062614Y0139965D01*
X0062614Y0145038D01*
X0064207Y0146630D01*
X0069386Y0146630D01*
X0069386Y0148205D01*
X0071512Y0148205D01*
X0075213Y0144504D01*
X0082885Y0144504D01*
X0082885Y0144743D01*
X0069701Y0137181D02*
X0069386Y0137181D01*
X0069701Y0137181D02*
X0069701Y0129543D01*
X0057890Y0129543D01*
X0057890Y0132535D01*
X0057969Y0132535D01*
X0053953Y0139965D02*
X0053953Y0142772D01*
X0054228Y0142772D01*
X0069701Y0129543D02*
X0069701Y0126669D01*
X0093992Y0115764D02*
X0097101Y0115764D01*
X0099622Y0118285D01*
X0099622Y0131118D01*
X0103559Y0135055D01*
X0117024Y0135055D01*
X0121748Y0129780D01*
D27*
X0128756Y0090173D03*
X0123244Y0078362D03*
X0119307Y0054740D03*
X0097260Y0090173D03*
X0072063Y0064189D03*
X0055528Y0037445D03*
X0060252Y0150252D03*
M02*
