%
M48
M72
T01C0.02362
T02C0.03200
T03C0.03543
T04C0.03600
T05C0.04000
T06C0.05118
T07C0.06299
%
T01
X55528Y37445
X72063Y64189
X97260Y90173
X123244Y78362
X128756Y90173
X119307Y54740
X84661Y137417
X60252Y150252
T02
X79110Y151827
X89110Y151827
X68913Y126669
X68913Y116669
X58638Y120646
X48638Y120646
X83992Y115764
X93992Y115764
X98205Y100213
X88205Y100213
X48323Y42142
X38323Y42142
X61591Y31118
X71591Y31118
X81433Y31118
X91433Y31118
X101709Y31118
X111709Y31118
X121394Y32693
X131394Y32693
T03
X104346Y18520
X94504Y18520
X84661Y18520
X74819Y18520
X64976Y18520
T04
X111000Y49071
X111000Y59071
X111000Y69071
X111000Y90409
X111000Y100409
X111000Y110409
X141000Y110409
X141000Y100409
X141000Y90409
X141000Y69071
X141000Y59071
X141000Y49071
T05
X26276Y36630
X19858Y47535
X82885Y126943
X82885Y144743
X108485Y144743
X121748Y129780
X108485Y126943
T06
X42614Y108677
X22614Y108677
T07
X14110Y58677
X32614Y58677
X51118Y58677
M30
