G75*
%MOIN*%
%OFA0B0*%
%FSLAX25Y25*%
%IPPOS*%
%LPD*%
%AMOC8*
5,1,8,0,0,1.08239X$1,22.5*
%
%ADD10R,0.06299X0.05512*%
%ADD11R,0.03000X0.04500*%
%ADD12R,0.05512X0.01063*%
%ADD13R,0.02165X0.04724*%
D10*
G36*
X0033610Y0027625D02*
X0037487Y0032587D01*
X0041830Y0029193D01*
X0037953Y0024231D01*
X0033610Y0027625D01*
G37*
G36*
X0042296Y0020838D02*
X0046173Y0025800D01*
X0050516Y0022406D01*
X0046639Y0017444D01*
X0042296Y0020838D01*
G37*
X0069386Y0137181D03*
X0069386Y0148205D03*
D11*
X0071315Y0082212D03*
X0076315Y0082212D03*
X0081315Y0082212D03*
X0086315Y0082212D03*
X0091315Y0082212D03*
X0096315Y0082212D03*
X0101315Y0082212D03*
X0066315Y0082212D03*
X0061315Y0082212D03*
X0061315Y0044512D03*
X0066315Y0044512D03*
X0071315Y0044512D03*
X0076315Y0044512D03*
X0081315Y0044512D03*
X0086315Y0044512D03*
X0091315Y0044512D03*
X0096315Y0044512D03*
X0101315Y0044512D03*
D12*
X0079780Y0091276D03*
X0079780Y0093244D03*
X0079780Y0095213D03*
X0079780Y0097181D03*
X0079780Y0099150D03*
X0079780Y0101118D03*
X0067969Y0101118D03*
X0067969Y0099150D03*
X0067969Y0097181D03*
X0067969Y0095213D03*
X0067969Y0093244D03*
X0067969Y0091276D03*
D13*
X0057969Y0132535D03*
X0050488Y0132535D03*
X0050488Y0142772D03*
X0054228Y0142772D03*
X0057969Y0142772D03*
M02*
