G75*
%MOIN*%
%OFA0B0*%
%FSLAX25Y25*%
%IPPOS*%
%LPD*%
%AMOC8*
5,1,8,0,0,1.08239X$1,22.5*
%
%ADD10OC8,0.07100*%
%ADD11R,0.07099X0.06312*%
%ADD12R,0.03800X0.05300*%
%ADD13C,0.08200*%
%ADD14OC8,0.09300*%
%ADD15OC8,0.06000*%
%ADD16C,0.06400*%
%ADD17C,0.10249*%
%ADD18C,0.10249*%
%ADD19C,0.08477*%
%ADD20C,0.06800*%
%ADD21R,0.03950X0.01863*%
%ADD22R,0.02965X0.05524*%
%ADD23R,0.04762X0.04762*%
D10*
X0081433Y0031118D03*
X0091433Y0031118D03*
X0086630Y0100213D03*
X0096630Y0100213D03*
X0068913Y0141079D03*
X0068913Y0151079D03*
D11*
X0069228Y0130567D03*
X0069228Y0119543D03*
G36*
X0013594Y0047127D02*
X0019407Y0051198D01*
X0023028Y0046029D01*
X0017215Y0041958D01*
X0013594Y0047127D01*
G37*
G36*
X0019917Y0038097D02*
X0025730Y0042168D01*
X0029351Y0036999D01*
X0023538Y0032928D01*
X0019917Y0038097D01*
G37*
D12*
X0061315Y0044512D03*
X0066315Y0044512D03*
X0071315Y0044512D03*
X0076315Y0044512D03*
X0081315Y0044512D03*
X0086315Y0044512D03*
X0091315Y0044512D03*
X0096315Y0044512D03*
X0101315Y0044512D03*
X0101315Y0082212D03*
X0096315Y0082212D03*
X0091315Y0082212D03*
X0086315Y0082212D03*
X0081315Y0082212D03*
X0076315Y0082212D03*
X0071315Y0082212D03*
X0066315Y0082212D03*
X0061315Y0082212D03*
D13*
X0058638Y0120646D03*
X0048638Y0120646D03*
D14*
X0035724Y0027181D03*
X0126945Y0125488D03*
X0117024Y0135291D03*
D15*
X0093992Y0115764D03*
X0083992Y0115764D03*
X0048323Y0042142D03*
X0047614Y0033717D03*
X0055291Y0025606D03*
X0057614Y0033717D03*
X0065291Y0025606D03*
X0038323Y0042142D03*
X0111433Y0032181D03*
X0121394Y0032693D03*
X0111433Y0022181D03*
X0131394Y0032693D03*
D16*
X0138200Y0049071D02*
X0143800Y0049071D01*
X0143800Y0059071D02*
X0138200Y0059071D01*
X0138200Y0069071D02*
X0143800Y0069071D01*
X0143800Y0090409D02*
X0138200Y0090409D01*
X0138200Y0100409D02*
X0143800Y0100409D01*
X0143800Y0110409D02*
X0138200Y0110409D01*
X0113800Y0110409D02*
X0108200Y0110409D01*
X0108200Y0100409D02*
X0113800Y0100409D01*
X0113800Y0090409D02*
X0108200Y0090409D01*
X0108200Y0069071D02*
X0113800Y0069071D01*
X0113800Y0059071D02*
X0108200Y0059071D01*
X0108200Y0049071D02*
X0113800Y0049071D01*
D17*
X0014110Y0058677D03*
D18*
X0032614Y0063402D02*
X0032614Y0053953D01*
X0051118Y0053953D02*
X0051118Y0063402D01*
D19*
X0042614Y0108677D03*
X0022614Y0108677D03*
D20*
X0079885Y0126943D02*
X0085885Y0126943D01*
X0085885Y0144743D02*
X0079885Y0144743D01*
X0105485Y0144743D02*
X0111485Y0144743D01*
X0111485Y0126943D02*
X0105485Y0126943D01*
X0103165Y0018488D02*
X0103165Y0012488D01*
X0093165Y0012488D02*
X0093165Y0018488D01*
X0083165Y0018488D02*
X0083165Y0012488D01*
X0073165Y0012488D02*
X0073165Y0018488D01*
X0063165Y0018488D02*
X0063165Y0012488D01*
D21*
X0069150Y0091276D03*
X0069150Y0093244D03*
X0069150Y0095213D03*
X0069150Y0097181D03*
X0069150Y0099150D03*
X0069150Y0101118D03*
X0078598Y0101118D03*
X0078598Y0099150D03*
X0078598Y0097181D03*
X0078598Y0095213D03*
X0078598Y0093244D03*
X0078598Y0091276D03*
D22*
X0057969Y0134110D03*
X0050488Y0134110D03*
X0050488Y0144347D03*
X0054228Y0144347D03*
X0057969Y0144347D03*
D23*
X0097260Y0090173D03*
X0108350Y0076000D03*
X0123244Y0078362D03*
X0128756Y0090173D03*
M02*
