G75*
%MOIN*%
%OFA0B0*%
%FSLAX25Y25*%
%IPPOS*%
%LPD*%
%AMOC8*
5,1,8,0,0,1.08239X$1,22.5*
%
%ADD10R,0.06299X0.05512*%
%ADD11R,0.03000X0.04500*%
%ADD12R,0.03150X0.01063*%
%ADD13R,0.02165X0.04724*%
D10*
G36*
X0020474Y0037999D02*
X0025632Y0041611D01*
X0028794Y0037097D01*
X0023636Y0033485D01*
X0020474Y0037999D01*
G37*
G36*
X0014151Y0047029D02*
X0019309Y0050641D01*
X0022471Y0046127D01*
X0017313Y0042515D01*
X0014151Y0047029D01*
G37*
X0069228Y0119543D03*
X0069228Y0130567D03*
D11*
X0071315Y0082212D03*
X0076315Y0082212D03*
X0081315Y0082212D03*
X0086315Y0082212D03*
X0091315Y0082212D03*
X0096315Y0082212D03*
X0101315Y0082212D03*
X0066315Y0082212D03*
X0061315Y0082212D03*
X0061315Y0044512D03*
X0066315Y0044512D03*
X0071315Y0044512D03*
X0076315Y0044512D03*
X0081315Y0044512D03*
X0086315Y0044512D03*
X0091315Y0044512D03*
X0096315Y0044512D03*
X0101315Y0044512D03*
D12*
X0078598Y0091276D03*
X0078598Y0093244D03*
X0078598Y0095213D03*
X0078598Y0097181D03*
X0078598Y0099150D03*
X0078598Y0101118D03*
X0069150Y0101118D03*
X0069150Y0099150D03*
X0069150Y0097181D03*
X0069150Y0095213D03*
X0069150Y0093244D03*
X0069150Y0091276D03*
D13*
X0057969Y0134110D03*
X0050488Y0134110D03*
X0050488Y0144347D03*
X0054228Y0144347D03*
X0057969Y0144347D03*
M02*
