%
M48
M72
T01C0.02362
T02C0.03200
T03C0.03600
T04C0.04000
T05C0.05118
T06C0.06299
%
T01
X97260Y90173
X108350Y76000
X123244Y78362
X128756Y90173
T02
X96630Y100213
X86630Y100213
X83992Y115764
X93992Y115764
X68913Y141079
X68913Y151079
X58638Y120646
X48638Y120646
X48323Y42142
X47614Y33717
X55291Y25606
X57614Y33717
X65291Y25606
X81433Y31118
X91433Y31118
X111433Y32181
X121394Y32693
X111433Y22181
X131394Y32693
X38323Y42142
T03
X111000Y49071
X111000Y59071
X111000Y69071
X111000Y90409
X111000Y100409
X111000Y110409
X141000Y110409
X141000Y100409
X141000Y90409
X141000Y69071
X141000Y59071
X141000Y49071
T04
X35724Y27181
X63165Y15488
X73165Y15488
X83165Y15488
X93165Y15488
X103165Y15488
X126945Y125488
X117024Y135291
X108485Y126943
X108485Y144743
X82885Y144743
X82885Y126943
T05
X42614Y108677
X22614Y108677
T06
X14110Y58677
X32614Y58677
X51118Y58677
M30
